<svg xmlns="http://www.w3.org/2000/svg" viewBox="0 0 1024 1024">
  <rect width="1024" height="1024" rx="224" fill="#0b0d0a"/>
  <path d="M270 242h484v154H420c-68 0-106 29-106 72 0 41 35 63 105 79l188 43c112 26 171 86 171 180 0 129-103 218-279 218H270V834h248c72 0 112-28 112-74 0-40-34-62-104-79l-190-45c-110-26-166-84-166-176 0-129 99-218 271-218h313z" fill="#c9ff2f"/>
  <path d="M397 478c86 21 182 37 255 74M370 526c84 22 181 38 257 76M382 579c78 20 168 36 236 68" fill="none" stroke="#0b0d0a" stroke-width="22" stroke-linecap="square"/>
  <path d="M270 242h154v154H270zM600 834h178v154H600z" fill="#ff5a27"/>
</svg>
